{"title":"WWE MONDAY NIGHT RAW 28 11 2011 HDTV part 2 BZINGAZ.mp4","uid":6854671,"size":103492283,"categoryP":"video","categoryS":"tv_shows","magnet":"?xt=urn:btih:3fc88e5e7ce234f2a72c110bf3d85a16e91f291b&amp;dn=WWE+MONDAY+NIGHT+RAW+28+11+2011+HDTV+part+2+BZINGAZ.mp4&amp;tr=udp%3A%2F%2Ftracker.openbittorrent.com%3A80&amp;tr=udp%3A%2F%2Fopen.demonii.com%3A1337&amp;tr=udp%3A%2F%2Ftracker.coppersurfer.tk%3A6969&amp;tr=udp%3A%2F%2Fexodus.desync.com%3A6969","seeders":2,"leechers":0,"uploader":"bzingaz","files":-1,"time":1322612035,"description":"It is the rest of the show which was missing from my raw 28 11 2011 episode..\n\n\nVideo\nID                               : 1\nFormat                           : AVC\nFormat/Info                      : Advanced Video Codec\nFormat profile                   : &lt;a class=&quot;__cf_email__&quot; href=&quot;/cdn-cgi/l/email-protection&quot; data-cfemail=&quot;7d3f1c0e18111413183d314e534d&quot;&gt;[email&amp;#160;protected]&lt;/a&gt;&lt;script cf-hash='f9e31' type=&quot;text/javascript&quot;&gt;\n/* &lt;![CDATA[ */!function(){try{var t=&quot;currentScript&quot;in document?document.currentScript:function(){for(var t=document.getElementsByTagName(&quot;script&quot;),e=t.length;e--;)if(t[e].getAttribute(&quot;cf-hash&quot;))return t[e]}();if(t&amp;&amp;t.previousSibling){var e,r,n,i,c=t.previousSibling,a=c.getAttribute(&quot;data-cfemail&quot;);if(a){for(e=&quot;&quot;,r=parseInt(a.substr(0,2),16),n=2;a.length-n;n+=2)i=parseInt(a.substr(n,2),16)^r,e+=String.fromCharCode(i);e=document.createTextNode(e),c.parentNode.replaceChild(e,c)}}}catch(u){}}();/* ]]&gt; */&lt;/script&gt;\nFormat settings, CABAC           : No\nFormat settings, ReFrames        : 1 frame\nCodec ID                         : avc1\nCodec ID/Info                    : Advanced Video Coding\nDuration                         : 30mn 1s\nBit rate mode                    : Variable\nBit rate                         : 360 Kbps\nWidth                            : 512 pixels\nHeight                           : 288 pixels\nDisplay aspect ratio             : 16:9\nFrame rate mode                  : Constant\nFrame rate                       : 25.000 fps\nColor space                      : YUV\nChroma subsampling               : 4:2:0\nBit depth                        : 8 bits\nScan type                        : Progressive\nBits/(Pixel*Frame)               : 0.098\nStream size                      : 77.1 MiB (78%)\nWriting library                  : x264 core 112 r1834 a51816a\n\n\nAudio\nID                               : 2\nFormat                           : AAC\nFormat/Info                      : Advanced Audio Codec\nFormat profile                   : LC\nCodec ID                         : 40\nDuration                         : 30mn 1s\nBit rate mode                    : Variable\nBit rate                         : 96.0 Kbps\nChannel(s)                       : 2 channels\nChannel positions                : Front: L R\nSampling rate                    : 44.1 KHz\nCompression mode                 : Lossy\nStream size                      : 20.6 MiB (21%)\n","torrent":{"xt":"urn:btih:3fc88e5e7ce234f2a72c110bf3d85a16e91f291b","amp;dn":"WWE+MONDAY+NIGHT+RAW+28+11+2011+HDTV+part+2+BZINGAZ.mp4","amp;tr":["udp%3A%2F%2Ftracker.openbittorrent.com%3A80","udp%3A%2F%2Fopen.demonii.com%3A1337","udp%3A%2F%2Ftracker.coppersurfer.tk%3A6969","udp%3A%2F%2Fexodus.desync.com%3A6969"],"infoHash":"3fc88e5e7ce234f2a72c110bf3d85a16e91f291b","infoHashBuffer":{"type":"Buffer","data":[63,200,142,94,124,226,52,242,167,44,17,11,243,216,90,22,233,31,41,27]},"announce":[],"urlList":[]}}